<svg xmlns="http://www.w3.org/2000/svg" width="70.249" height="59.767" viewBox="0 0 70.249 59.767">
  <g id="best-price" transform="translate(0 -38.197)">
    <path id="Контур_26" data-name="Контур 26" d="M344.2,43.709l-12.225-5.093a5.523,5.523,0,0,0-4.22,0l-5.87,2.445a1.029,1.029,0,0,0,.791,1.9l5.87-2.445a3.452,3.452,0,0,1,2.637,0L343.4,45.609a3.1,3.1,0,0,1,1.957,2.841V92.458a3.2,3.2,0,0,1-3.276,3.1h-1.668a1.029,1.029,0,1,0,0,2.058h1.668a5.256,5.256,0,0,0,5.335-5.162V48.45A5.157,5.157,0,0,0,344.2,43.709Z" transform="translate(-277.171 0)" fill="#00bff6"/>
    <path id="Контур_27" data-name="Контур 27" d="M63.823,124.845H41.47a4.421,4.421,0,0,0,.06-5.771,4.445,4.445,0,0,0,1.124-.817,4.422,4.422,0,0,0,.175-6.069,4.424,4.424,0,0,0,1.136-6.788,4.468,4.468,0,0,0,.97-.734A4.428,4.428,0,0,0,41.8,97.109H37.189V77.733a3.1,3.1,0,0,1,1.957-2.841l6.5-2.71a1.029,1.029,0,0,0-.791-1.9l-6.5,2.71a5.157,5.157,0,0,0-3.223,4.741V97.109h-4.3c1.432-4.524,1.31-9.246-.361-14.727a3.973,3.973,0,0,0-1.461-2.056,4.033,4.033,0,0,0-6.417,3.457c.322,6.188-2.532,8.317-6.483,11.265a47.522,47.522,0,0,0-4.119,3.334V97.034A1.029,1.029,0,0,0,10.962,96H1.029A1.029,1.029,0,0,0,0,97.034v29.185a1.029,1.029,0,0,0,1.029,1.029h9.934a1.029,1.029,0,0,0,1.029-1.029V123.63a8.538,8.538,0,0,1,4.769,1.638,5.229,5.229,0,0,0,3.16,1.082H38.069a5.48,5.48,0,0,0,2.4.553H63.823a1.029,1.029,0,1,0,0-2.058Zm-45.81-1.211a10.914,10.914,0,0,0-6.021-2.073V109.546a1.029,1.029,0,1,0-2.058,0V125.19H2.058V98.063H9.934v14.086a1.029,1.029,0,1,0,2.058,0V101.306a35.279,35.279,0,0,1,5.35-4.607c3.953-2.949,7.686-5.736,7.307-13.021a1.976,1.976,0,0,1,3.144-1.691,1.93,1.93,0,0,1,.71,1c1.7,5.582,1.675,10.279-.084,14.78a1.029,1.029,0,0,0,.958,1.4H41.8a2.369,2.369,0,1,1,0,4.738H37.576a1.029,1.029,0,0,0,0,2.058h3.076a2.369,2.369,0,1,1,0,4.738H37.576a1.029,1.029,0,1,0,0,2.058h1.947a2.369,2.369,0,0,1,0,4.738H36.447a1.029,1.029,0,1,0,0,2.058h1.7a2.369,2.369,0,0,1,1.676,4.043,2.5,2.5,0,0,1-1.572.692l-18.328,0a3.164,3.164,0,0,1-1.908-.658Z" transform="translate(0 -29.283)" fill="#00bff6"/>
    <path id="Контур_28" data-name="Контур 28" d="M361.771,91.595a3.922,3.922,0,1,0-3.922,3.922A3.926,3.926,0,0,0,361.771,91.595Zm-5.785,0a1.863,1.863,0,1,1,1.863,1.864A1.866,1.866,0,0,1,355.986,91.595Z" transform="translate(-305.368 -42.687)" fill="#00bff6"/>
    <path id="Контур_29" data-name="Контур 29" d="M351.562,263.008h-1.846a1.765,1.765,0,0,1-1.763-1.763,1.029,1.029,0,0,0-2.058,0,3.825,3.825,0,0,0,3.715,3.818v2.277a1.029,1.029,0,1,0,2.058,0v-2.277a3.825,3.825,0,0,0,3.715-3.818V259.82a3.034,3.034,0,0,0-2.1-2.893l-4.648-1.51a.981.981,0,0,1-.679-.935v-2.04a1.433,1.433,0,0,1,1.432-1.432h2.508a1.433,1.433,0,0,1,1.432,1.432,1.029,1.029,0,1,0,2.058,0,3.494,3.494,0,0,0-3.49-3.49h-.225v-2.275a1.029,1.029,0,0,0-2.058,0v2.275h-.225a3.494,3.494,0,0,0-3.49,3.49v2.04a3.034,3.034,0,0,0,2.1,2.892l4.648,1.51a.981.981,0,0,1,.68.935v1.425A1.765,1.765,0,0,1,351.562,263.008Z" transform="translate(-298.437 -178.988)" fill="#00bff6"/>
  </g>
</svg>
