<svg id="shopping-bag-filled-silhouette" xmlns="http://www.w3.org/2000/svg" width="19.128" height="24.99" viewBox="0 0 19.128 24.99">
  <path id="Контур_1" data-name="Контур 1" d="M76.392,5.863H73.515V5.674A5.68,5.68,0,0,0,67.841,0h-.477A5.68,5.68,0,0,0,61.69,5.674v.189H58.782a.759.759,0,0,0-.759.759v17.61a.759.759,0,0,0,.759.759h17.61a.759.759,0,0,0,.759-.759V6.622A.759.759,0,0,0,76.392,5.863Zm-12.91-.189a3.887,3.887,0,0,1,3.882-3.882h.477a3.88,3.88,0,0,1,3.875,3.882V7.529a.893.893,0,1,1-1.786,0s0,0,0-.006V5.863H65.273v1.66h0s0,0,0,.006a.9.9,0,0,1-1.791,0Z" transform="translate(-58.023 0)" fill="#014b85"/>
</svg>
