<svg xmlns="http://www.w3.org/2000/svg" width="65.4" height="59.172" viewBox="0 0 65.4 59.172">
  <g id="delivery-time" transform="translate(-8 -40)">
    <path id="Контур_21" data-name="Контур 21" d="M99.228,406.455A3.228,3.228,0,1,0,96,403.228,3.228,3.228,0,0,0,99.228,406.455Zm0-4.3a1.076,1.076,0,1,1-1.076,1.076A1.076,1.076,0,0,1,99.228,402.152Z" transform="translate(-76.165 -311.586)" fill="#00bff6"/>
    <path id="Контур_22" data-name="Контур 22" d="M379.228,400a3.228,3.228,0,1,0,3.228,3.228A3.228,3.228,0,0,0,379.228,400Zm0,4.3a1.076,1.076,0,1,1,1.076-1.076,1.076,1.076,0,0,1-1.076,1.076Z" transform="translate(-318.51 -311.586)" fill="#00bff6"/>
    <path id="Контур_23" data-name="Контур 23" d="M71.476,56.138h-5.3a15.059,15.059,0,0,0-2.2-3.888l1.806-1.806a1.076,1.076,0,1,0-1.522-1.522L62.53,50.651a15.012,15.012,0,0,0-9.344-4.157V45.379h2.152A1.076,1.076,0,0,0,56.414,44.3V41.076A1.076,1.076,0,0,0,55.338,40H48.883a1.076,1.076,0,0,0-1.076,1.076V44.3a1.076,1.076,0,0,0,1.076,1.076h2.152v1.115a15.093,15.093,0,0,0-12.992,9.644H31.669a1.076,1.076,0,0,0-1.076,1.076v3.228H19.835a1.078,1.078,0,0,0-.935.542L10.293,76.045a1.078,1.078,0,0,0-.141.534V91.641a1.076,1.076,0,0,0,1.076,1.076H16.7a6.467,6.467,0,0,0,2.8,4.3H9.076a1.076,1.076,0,0,0,0,2.152H72.324a1.076,1.076,0,0,0,0-2.152H64.28a6.467,6.467,0,0,0,2.8-4.3h4.395a1.076,1.076,0,0,0,1.076-1.076V57.214A1.076,1.076,0,0,0,71.476,56.138ZM49.959,43.228V42.152h4.3v1.076Zm2.152,5.379A12.91,12.91,0,1,1,39.2,61.517,12.91,12.91,0,0,1,52.11,48.607Zm-33.5,17.214H26.29V75.5H13.082ZM12.3,80.883h2.152a1.076,1.076,0,0,1,0,2.152H12.3ZM16.7,90.566H12.3V85.186h2.152a3.228,3.228,0,0,0,0-6.455H12.3V77.655H27.366a1.076,1.076,0,0,0,1.076-1.076V64.745a1.076,1.076,0,0,0-1.076-1.076H19.844l.615-1.076H30.593V90.566H29.426a6.454,6.454,0,0,0-12.727,0Zm6.364,5.379a4.3,4.3,0,1,1,4.3-4.3A4.3,4.3,0,0,1,23.062,95.945Zm3.562,1.076a6.467,6.467,0,0,0,2.8-4.3H54.354a6.467,6.467,0,0,0,2.8,4.3Zm34.093-1.076a4.3,4.3,0,1,1,4.3-4.3A4.3,4.3,0,0,1,60.717,95.945ZM70.4,90.566H67.081a6.454,6.454,0,0,0-12.727,0H32.745V83.035H70.4Zm0-9.683H32.745V58.29H37.4a15.062,15.062,0,1,0,29.425,0H70.4Z" fill="#00bff6"/>
    <path id="Контур_24" data-name="Контур 24" d="M259.835,135.669A11.834,11.834,0,1,0,248,123.835,11.834,11.834,0,0,0,259.835,135.669Zm0-21.517a9.683,9.683,0,1,1-9.683,9.683,9.683,9.683,0,0,1,9.683-9.683Z" transform="translate(-207.724 -62.317)" fill="#00bff6"/>
    <path id="Контур_25" data-name="Контур 25" d="M330.467,168.292a1.076,1.076,0,0,0,1.522-1.522l-1.837-1.837v-3.858a1.076,1.076,0,0,0-2.152,0v4.3a1.076,1.076,0,0,0,.315.761Z" transform="translate(-276.965 -103.862)" fill="#00bff6"/>
  </g>
</svg>
