<svg xmlns="http://www.w3.org/2000/svg" width="48.774" height="58.934" viewBox="0 0 48.774 58.934">
  <g id="_809498" data-name="809498" transform="translate(-39.995)">
    <g id="Сгруппировать_9" data-name="Сгруппировать 9" transform="translate(39.995)">
      <g id="Сгруппировать_8" data-name="Сгруппировать 8" transform="translate(0)">
        <path id="Контур_7" data-name="Контур 7" d="M88.556,51.2l-6.183-7.949a8.95,8.95,0,0,0,4.892-3.621c1.456-2.517.8-5.589.161-8.556a23.368,23.368,0,0,1-.688-4.654,23.361,23.361,0,0,1,.688-4.658c.633-2.969,1.3-6.039-.161-8.552-1.508-2.605-4.544-3.57-7.481-4.5A21.761,21.761,0,0,1,75.56,7.055a20.643,20.643,0,0,1-3.385-2.743C70,2.289,67.526,0,64.382,0s-5.614,2.289-7.794,4.31a20.648,20.648,0,0,1-3.384,2.744A21.755,21.755,0,0,1,48.982,8.7c-2.937.931-5.973,1.9-7.481,4.5-1.456,2.517-.8,5.589-.161,8.556a23.361,23.361,0,0,1,.687,4.658,23.361,23.361,0,0,1-.688,4.658c-.633,2.969-1.3,6.039.161,8.552a8.95,8.95,0,0,0,4.9,3.62L40.209,51.2a1.016,1.016,0,0,0,.929,1.632l7.265-.907L50.2,58.2a1.016,1.016,0,0,0,.783.718,1.036,1.036,0,0,0,.193.018,1.016,1.016,0,0,0,.8-.392L58.465,50.2a9.4,9.4,0,0,0,5.918,2.642A9.4,9.4,0,0,0,70.3,50.2l6.489,8.343a1.016,1.016,0,0,0,.8.4,1.036,1.036,0,0,0,.193-.018,1.016,1.016,0,0,0,.783-.718l1.793-6.274,7.265.907a1.016,1.016,0,0,0,.929-1.632ZM51.6,55.714l-1.483-5.188a1.016,1.016,0,0,0-1.1-.729l-5.69.711,5.1-6.556.562.18a21.754,21.754,0,0,1,4.219,1.65,20.642,20.642,0,0,1,3.385,2.743l.35.323Zm12.783-4.909c-2.347,0-4.321-1.829-6.413-3.768a22.4,22.4,0,0,0-3.748-3.015A23.56,23.56,0,0,0,49.6,42.194c-2.686-.853-5.223-1.657-6.336-3.582-1.063-1.838-.514-4.4.068-7.113a24.883,24.883,0,0,0,.734-5.081,24.873,24.873,0,0,0-.733-5.081c-.582-2.712-1.131-5.274-.068-7.113C44.377,12.3,46.91,11.5,49.6,10.644a23.567,23.567,0,0,0,4.625-1.829A22.4,22.4,0,0,0,57.969,5.8c2.092-1.939,4.066-3.768,6.414-3.768S68.7,3.861,70.8,5.8a22.4,22.4,0,0,0,3.748,3.015,23.56,23.56,0,0,0,4.626,1.829c2.686.853,5.223,1.657,6.336,3.582,1.063,1.838.514,4.4-.068,7.113a24.883,24.883,0,0,0-.734,5.081,24.873,24.873,0,0,0,.733,5.081c.582,2.712,1.131,5.274.068,7.113-1.118,1.925-3.651,2.729-6.336,3.582a23.567,23.567,0,0,0-4.625,1.829A22.4,22.4,0,0,0,70.8,47.038C68.7,48.976,66.73,50.805,64.382,50.805ZM79.755,49.8a1.016,1.016,0,0,0-1.1.729l-1.488,5.188L71.826,48.85l.35-.323a20.648,20.648,0,0,1,3.384-2.745,21.755,21.755,0,0,1,4.223-1.65l.562-.18,5.1,6.556Z" transform="translate(-39.995)" fill="#00bff6"/>
      </g>
    </g>
    <g id="Сгруппировать_11" data-name="Сгруппировать 11" transform="translate(46.093 8.129)">
      <g id="Сгруппировать_10" data-name="Сгруппировать 10" transform="translate(0)">
        <path id="Контур_8" data-name="Контур 8" d="M106.29,64a18.29,18.29,0,1,0,18.29,18.29A18.29,18.29,0,0,0,106.29,64Zm0,34.548A16.258,16.258,0,1,1,122.548,82.29,16.258,16.258,0,0,1,106.29,98.548Z" transform="translate(-88 -64)" fill="#00bff6"/>
      </g>
    </g>
    <g id="Сгруппировать_13" data-name="Сгруппировать 13" transform="translate(52.267 14.019)">
      <g id="Сгруппировать_12" data-name="Сгруппировать 12" transform="translate(0)">
        <path id="Контур_9" data-name="Контур 9" d="M160.455,118.531a2.032,2.032,0,0,0-1.642-.836h-6.221l-1.931-5.921a2.032,2.032,0,0,0-3.861,0l-1.926,5.921h-6.226a2.032,2.032,0,0,0-1.2,3.675l5.036,3.658-1.923,5.921a2.032,2.032,0,0,0,3.128,2.272l5.039-3.657,5.037,3.658a2.032,2.032,0,0,0,3.128-2.272l-1.923-5.922,5.036-3.658A2.032,2.032,0,0,0,160.455,118.531Zm-7.275,5.288a1.016,1.016,0,0,0-.369,1.137l2.152,6.623-5.634-4.093a1.016,1.016,0,0,0-1.194,0l-5.634,4.093,2.151-6.623a1.016,1.016,0,0,0-.369-1.136l-5.633-4.093h6.963a1.016,1.016,0,0,0,.966-.7l2.152-6.623,2.152,6.622a1.016,1.016,0,0,0,.966.7h6.963Z" transform="translate(-136.616 -110.376)" fill="#00bff6"/>
      </g>
    </g>
  </g>
</svg>
